<?xml version="1.0" encoding="utf-8"?>
<!-- Svg Vector Icons : http://www.onlinewebfonts.com/icon -->
<!DOCTYPE svg PUBLIC "-//W3C//DTD SVG 1.1//EN" "http://www.w3.org/Graphics/SVG/1.1/DTD/svg11.dtd">
<svg version="1.1" xmlns="http://www.w3.org/2000/svg" xmlns:xlink="http://www.w3.org/1999/xlink" x="0px" y="0px" viewBox="0 0 1000 1000" enable-background="new 0 0 1000 1000" xml:space="preserve">
<metadata> Svg Vector Icons : http://www.onlinewebfonts.com/icon </metadata>
<g><path fill="#fff" d="M990,500c0,270.3-219.7,490-490,490S10,770.3,10,500S229.7,10,500,10S990,229.7,990,500z M500,79.7C268,79.7,79.7,268,79.7,500S268,920.3,500,920.3S920.3,732,920.3,500S732,79.7,500,79.7z M702.9,520.7c-60.5,36-248.1,147.8-310.1,184.5c-24.5,15.3-45.9,13-45.9-24.5c0-68.1,0-288.6,0-364.4c0-31.4,18.4-38.3,43.6-22.2c65.8,39,250.4,149.3,310.1,184.5C719,490.8,719,512.3,702.9,520.7z"/></g>
</svg>