<?xml version="1.0" encoding="utf-8"?>
<!-- Generator: Adobe Illustrator 16.0.3, SVG Export Plug-In . SVG Version: 6.00 Build 0)  -->
<!DOCTYPE svg PUBLIC "-//W3C//DTD SVG 1.1//EN" "http://www.w3.org/Graphics/SVG/1.1/DTD/svg11.dtd">
<svg version="1.1" id="Layer_1" xmlns="http://www.w3.org/2000/svg" xmlns:xlink="http://www.w3.org/1999/xlink" x="0px" y="0px"
	 width="589.784px" height="76.667px" viewBox="0 0 589.784 76.667" enable-background="new 0 0 589.784 76.667"
	 xml:space="preserve">
<g>
	<g>
		<path fill="#4D9FC0" d="M20.241,5.334h12.591l15.226,41.814H34.707l-1.757-5.974H19.656l-1.874,5.974H4.839L20.241,5.334z
			 M30.373,32.214l-3.748-12.884h-0.117l-4.041,12.884H30.373z"/>
		<path fill="#4D9FC0" d="M81.552,42.873c-2.87,3.689-7.32,5.271-11.889,5.271c-12.356,0-19.97-9.604-19.97-21.493
			c0-15.929,11.186-22.313,20.614-22.313c10.658,0,17.393,5.798,19.267,15.636H77.218c-0.468-3.045-3.045-5.212-6.09-5.212
			c-8.843,0-8.55,9.312-8.55,12.181c0,3.923,1.581,10.775,9.429,10.775c2.987,0,6.032-1.522,6.676-4.626h-5.681v-8.96h17.101v23.015
			h-8.141L81.552,42.873z"/>
		<path fill="#4D9FC0" d="M96.481,5.334h34.611v10.717h-21.727v5.212h19.736v9.956h-19.736v5.212h22.371v10.717H96.481V5.334z"/>
		<path fill="#4D9FC0" d="M137.764,5.334h13.177l12.181,22.371h0.117V5.334h12.181v41.814h-12.532l-12.826-22.84h-0.117v22.84
			h-12.181V5.334z"/>
		<path fill="#4D9FC0" d="M182.15,5.334h21.142c13.938,0,18.857,10.307,18.857,20.848c0,12.826-6.793,20.966-21.375,20.966H182.15
			V5.334z M195.034,36.431h5.036c8.023,0,9.194-6.5,9.194-10.424c0-2.636-0.82-9.956-10.131-9.956h-4.099V36.431z"/>
		<path fill="#4D9FC0" d="M239.304,5.334h12.591l15.226,41.814h-13.352l-1.757-5.974h-13.293l-1.874,5.974h-12.943L239.304,5.334z
			 M249.435,32.214l-3.748-12.884h-0.117l-4.041,12.884H249.435z"/>
	</g>
	<g>
		<path fill="#656464" d="M276.942,5.333h18.331l5.973,24.596h0.117l5.974-24.596h18.33v41.814h-12.181V20.325h-0.117l-7.262,26.822
			h-9.604l-7.262-26.822h-0.117v26.822h-12.182V5.333z"/>
		<path fill="#656464" d="M343.881,5.333h12.591l15.227,41.814h-13.353l-1.757-5.974h-13.294l-1.874,5.974h-12.942L343.881,5.333z
			 M354.013,32.213l-3.748-12.884h-0.117l-4.041,12.884H354.013z"/>
		<path fill="#656464" d="M374.567,5.333h12.884V36.43h18.506v10.717h-31.39V5.333z"/>
		<path fill="#656464" d="M428.622,47.147h-14.406L401.742,5.333h13.001l6.852,25.358h0.117l6.734-25.358h13.235L428.622,47.147z"/>
		<path fill="#656464" d="M444.024,5.333h12.884v41.814h-12.884V5.333z"/>
		<path fill="#656464" d="M463.585,5.333h13.177l12.182,22.371h0.117V5.333h12.181v41.814h-12.532l-12.825-22.84h-0.117v22.84
			h-12.182V5.333z"/>
		<path fill="#656464" d="M519.571,5.333h12.591l15.227,41.814h-13.353l-1.757-5.974h-13.294l-1.874,5.974h-12.942L519.571,5.333z
			 M529.703,32.213l-3.748-12.884h-0.117l-4.041,12.884H529.703z"/>
		<path fill="#656464" d="M560.508,33.092c0,1.054,0.176,1.991,0.469,2.752c0.937,2.518,3.748,3.045,6.148,3.045
			c2.108,0,5.329-0.703,5.329-3.807c0-2.167-1.815-2.752-9.019-4.802c-6.617-1.874-14.172-3.689-14.172-12.123
			c0-9.663,8.257-13.821,16.866-13.821c9.077,0,17.101,3.455,17.451,13.645H571.4c0.234-1.581-0.469-2.635-1.522-3.338
			c-1.055-0.761-2.519-1.054-3.807-1.054c-1.757,0-4.627,0.468-4.627,2.811c0.234,2.987,6.208,3.631,12.123,5.271
			s11.771,4.392,11.771,12.064c0,10.893-10.014,14.407-19.325,14.407c-4.744,0-18.271-1.698-18.389-15.051H560.508z"/>
	</g>
</g>
<g>
	<path fill="#656464" d="M123.714,57.09h6.304c3.484,0,4.835,2.212,4.835,4.483c0,2.271-1.351,4.483-4.835,4.483h-3.23v5.012h-3.074
		V57.09z M126.788,63.668h2.389c1.429,0,2.702-0.313,2.702-2.095c0-1.782-1.273-2.095-2.702-2.095h-2.389V63.668z"/>
	<path fill="#656464" d="M139.71,57.09h10.455v2.584h-7.381v2.996h6.774v2.388h-6.774v3.426h7.537v2.584H139.71V57.09z"/>
	<path fill="#656464" d="M155.334,57.09h7.538c2.506,0,4.091,1.742,4.091,3.857c0,1.644-0.666,2.877-2.212,3.504v0.039
		c1.507,0.392,1.938,1.86,2.036,3.27c0.059,0.881,0.04,2.525,0.587,3.309H164.3c-0.372-0.881-0.333-2.232-0.489-3.348
		c-0.215-1.468-0.783-2.114-2.33-2.114h-3.074v5.462h-3.074V57.09z M158.408,63.413h3.367c1.371,0,2.114-0.587,2.114-1.997
		c0-1.351-0.744-1.938-2.114-1.938h-3.367V63.413z"/>
	<path fill="#656464" d="M172.407,57.09h3.074v13.978h-3.074V57.09z"/>
	<path fill="#656464" d="M187.384,56.757c4.327,0,6.872,3.23,6.872,7.381c0,4.033-2.545,7.263-6.872,7.263
		c-4.326,0-6.871-3.23-6.871-7.263C180.513,59.987,183.058,56.757,187.384,56.757z M187.384,68.816c2.761,0,3.798-2.349,3.798-4.679
		c0-2.447-1.038-4.796-3.798-4.796c-2.76,0-3.798,2.349-3.798,4.796C183.586,66.467,184.624,68.816,187.384,68.816z"/>
	<path fill="#656464" d="M199.289,57.09h6.03c3.622,0,6.343,2.271,6.343,6.911c0,4.053-2.075,7.067-6.343,7.067h-6.03V57.09z
		 M202.362,68.484h2.741c1.782,0,3.485-1.097,3.485-4.189c0-2.819-0.979-4.621-4.033-4.621h-2.193V68.484z"/>
	<path fill="#656464" d="M216.733,57.09h3.074v13.978h-3.074V57.09z M218.73,55.837h-1.938l1.879-2.78h3.073L218.73,55.837z"/>
	<path fill="#656464" d="M227.541,66.428c0,1.86,1.449,2.584,3.093,2.584c1.077,0,2.721-0.313,2.721-1.742
		c0-1.507-2.095-1.762-4.15-2.31c-2.075-0.548-4.17-1.351-4.17-3.974c0-2.858,2.702-4.229,5.228-4.229
		c2.917,0,5.599,1.273,5.599,4.503h-2.976c-0.098-1.684-1.292-2.114-2.76-2.114c-0.979,0-2.114,0.411-2.114,1.585
		c0,1.077,0.666,1.214,4.17,2.115c1.018,0.254,4.15,0.9,4.15,4.072c0,2.564-2.017,4.483-5.814,4.483
		c-3.093,0-5.991-1.527-5.952-4.973H227.541z"/>
	<path fill="#656464" d="M241.09,57.09h4.327l3.27,9.612h0.039l3.093-9.612h4.327v13.978h-2.878v-9.906h-0.039l-3.426,9.906h-2.369
		l-3.426-9.808h-0.039v9.808h-2.878V57.09z"/>
	<path fill="#656464" d="M268.049,56.757c4.327,0,6.872,3.23,6.872,7.381c0,4.033-2.545,7.263-6.872,7.263
		c-4.326,0-6.871-3.23-6.871-7.263C261.178,59.987,263.723,56.757,268.049,56.757z M268.049,68.816c2.761,0,3.798-2.349,3.798-4.679
		c0-2.447-1.038-4.796-3.798-4.796c-2.76,0-3.798,2.349-3.798,4.796C264.251,66.467,265.289,68.816,268.049,68.816z"/>
	<path fill="#656464" d="M292.152,57.09h3.152l5.227,13.978h-3.191l-1.057-3.113h-5.227l-1.097,3.113h-3.113L292.152,57.09z
		 M291.858,65.665h3.622l-1.762-5.129h-0.039L291.858,65.665z"/>
	<path fill="#656464" d="M304.683,57.09h3.054l5.834,9.377h0.039V57.09h2.878v13.978h-3.074L307.6,61.71h-0.039v9.358h-2.878V57.09z
		"/>
	<path fill="#656464" d="M325.221,59.674h-4.189V57.09h11.453v2.584h-4.189v11.394h-3.074V59.674z"/>
	<path fill="#656464" d="M337.027,57.09h3.074v13.978h-3.074V57.09z"/>
	<path fill="#656464" d="M355.059,61.789c-0.195-1.39-1.527-2.447-3.054-2.447c-2.761,0-3.798,2.349-3.798,4.796
		c0,2.33,1.038,4.679,3.798,4.679c1.879,0,2.937-1.292,3.171-3.132h2.976c-0.313,3.485-2.721,5.717-6.146,5.717
		c-4.327,0-6.872-3.23-6.872-7.263c0-4.15,2.545-7.381,6.872-7.381c3.073,0,5.657,1.801,6.029,5.032H355.059z"/>
	<path fill="#656464" d="M369.449,56.757c4.327,0,6.872,3.23,6.872,7.381c0,4.033-2.545,7.263-6.872,7.263
		c-4.326,0-6.871-3.23-6.871-7.263C362.578,59.987,365.123,56.757,369.449,56.757z M369.449,68.816c2.761,0,3.798-2.349,3.798-4.679
		c0-2.447-1.037-4.796-3.798-4.796c-2.76,0-3.798,2.349-3.798,4.796C365.651,66.467,366.689,68.816,369.449,68.816z"/>
	<path fill="#656464" d="M381.354,57.09h3.074v11.394h6.813v2.584h-9.887V57.09z"/>
	<path fill="#656464" d="M402.166,56.757c4.327,0,6.872,3.23,6.872,7.381c0,4.033-2.545,7.263-6.872,7.263
		c-4.326,0-6.871-3.23-6.871-7.263C395.295,59.987,397.84,56.757,402.166,56.757z M402.166,68.816c2.761,0,3.798-2.349,3.798-4.679
		c0-2.447-1.037-4.796-3.798-4.796c-2.76,0-3.798,2.349-3.798,4.796C398.368,66.467,399.406,68.816,402.166,68.816z"/>
	<path fill="#656464" d="M414.07,57.09h3.055l5.834,9.377h0.039V57.09h2.877v13.978h-3.073l-5.814-9.358h-0.039v9.358h-2.878V57.09z
		"/>
	<path fill="#656464" d="M431.516,57.09h3.074v13.978h-3.074V57.09z"/>
	<path fill="#656464" d="M444.046,57.09h3.152l5.227,13.978h-3.19l-1.058-3.113h-5.227l-1.097,3.113h-3.112L444.046,57.09z
		 M443.753,65.665h3.621l-1.762-5.129h-0.039L443.753,65.665z"/>
	<path fill="#656464" d="M456.576,57.09h3.074v11.394h6.813v2.584h-9.887V57.09z"/>
</g>
</svg>
